<mxfile host="app.diagrams.net" agent="Mozilla/5.0 (Windows NT 10.0; Win64; x64) AppleWebKit/537.36 (KHTML, like Gecko) Chrome/128.0.0.0 Safari/537.36" version="24.7.7">
  <diagram name="페이지-1" id="EHgfh_z8XSHx1F4_Pof_">
    <mxGraphModel dx="2074" dy="1140" grid="1" gridSize="10" guides="1" tooltips="1" connect="1" arrows="1" fold="1" page="1" pageScale="1" pageWidth="827" pageHeight="1169" background="#FFFFFF" math="0" shadow="1">
      <root>
        <mxCell id="0" />
        <mxCell id="1" parent="0" />
        <mxCell id="dw1ToJf1mLdEPbmJalR3-20" style="edgeStyle=orthogonalEdgeStyle;rounded=0;orthogonalLoop=1;jettySize=auto;html=1;exitX=0.5;exitY=0.5;exitDx=0;exitDy=0;exitPerimeter=0;entryX=0;entryY=0.5;entryDx=0;entryDy=0;labelBackgroundColor=none;strokeColor=#457B9D;fontColor=default;" edge="1" parent="1" source="dw1ToJf1mLdEPbmJalR3-1" target="dw1ToJf1mLdEPbmJalR3-6">
          <mxGeometry relative="1" as="geometry" />
        </mxCell>
        <mxCell id="dw1ToJf1mLdEPbmJalR3-21" style="edgeStyle=orthogonalEdgeStyle;rounded=0;orthogonalLoop=1;jettySize=auto;html=1;exitX=0.5;exitY=0.5;exitDx=0;exitDy=0;exitPerimeter=0;entryX=0;entryY=0.5;entryDx=0;entryDy=0;labelBackgroundColor=none;strokeColor=#457B9D;fontColor=default;" edge="1" parent="1" source="dw1ToJf1mLdEPbmJalR3-1" target="dw1ToJf1mLdEPbmJalR3-5">
          <mxGeometry relative="1" as="geometry" />
        </mxCell>
        <mxCell id="dw1ToJf1mLdEPbmJalR3-63" style="edgeStyle=orthogonalEdgeStyle;rounded=0;orthogonalLoop=1;jettySize=auto;html=1;exitX=0.5;exitY=0.5;exitDx=0;exitDy=0;exitPerimeter=0;entryX=0.5;entryY=0;entryDx=0;entryDy=0;labelBackgroundColor=none;strokeColor=#457B9D;fontColor=default;" edge="1" parent="1" source="dw1ToJf1mLdEPbmJalR3-1" target="dw1ToJf1mLdEPbmJalR3-7">
          <mxGeometry relative="1" as="geometry">
            <Array as="points">
              <mxPoint x="140" y="330" />
              <mxPoint x="140" y="510" />
              <mxPoint x="260" y="510" />
            </Array>
          </mxGeometry>
        </mxCell>
        <mxCell id="dw1ToJf1mLdEPbmJalR3-1" value="회원" style="shape=umlActor;verticalLabelPosition=bottom;verticalAlign=top;html=1;outlineConnect=0;labelBackgroundColor=none;fillColor=#A8DADC;strokeColor=#457B9D;fontColor=#1D3557;" vertex="1" parent="1">
          <mxGeometry x="30" y="300" width="30" height="60" as="geometry" />
        </mxCell>
        <mxCell id="dw1ToJf1mLdEPbmJalR3-27" style="edgeStyle=orthogonalEdgeStyle;rounded=0;orthogonalLoop=1;jettySize=auto;html=1;exitX=0.5;exitY=0.5;exitDx=0;exitDy=0;exitPerimeter=0;entryX=0;entryY=0.5;entryDx=0;entryDy=0;labelBackgroundColor=none;strokeColor=#457B9D;fontColor=default;" edge="1" parent="1" source="dw1ToJf1mLdEPbmJalR3-2" target="dw1ToJf1mLdEPbmJalR3-7">
          <mxGeometry relative="1" as="geometry" />
        </mxCell>
        <mxCell id="dw1ToJf1mLdEPbmJalR3-61" style="edgeStyle=orthogonalEdgeStyle;rounded=0;orthogonalLoop=1;jettySize=auto;html=1;exitX=0.5;exitY=0.5;exitDx=0;exitDy=0;exitPerimeter=0;entryX=0;entryY=0.5;entryDx=0;entryDy=0;labelBackgroundColor=none;strokeColor=#457B9D;fontColor=default;" edge="1" parent="1" source="dw1ToJf1mLdEPbmJalR3-2" target="dw1ToJf1mLdEPbmJalR3-60">
          <mxGeometry relative="1" as="geometry" />
        </mxCell>
        <mxCell id="dw1ToJf1mLdEPbmJalR3-2" value="비회원" style="shape=umlActor;verticalLabelPosition=bottom;verticalAlign=top;html=1;outlineConnect=0;labelBackgroundColor=none;fillColor=#A8DADC;strokeColor=#457B9D;fontColor=#1D3557;" vertex="1" parent="1">
          <mxGeometry x="40" y="540" width="30" height="60" as="geometry" />
        </mxCell>
        <mxCell id="dw1ToJf1mLdEPbmJalR3-16" style="edgeStyle=orthogonalEdgeStyle;rounded=0;orthogonalLoop=1;jettySize=auto;html=1;exitX=0.5;exitY=0.5;exitDx=0;exitDy=0;exitPerimeter=0;entryX=0;entryY=0.5;entryDx=0;entryDy=0;labelBackgroundColor=none;strokeColor=#457B9D;fontColor=default;" edge="1" parent="1" source="dw1ToJf1mLdEPbmJalR3-3" target="dw1ToJf1mLdEPbmJalR3-8">
          <mxGeometry relative="1" as="geometry" />
        </mxCell>
        <mxCell id="dw1ToJf1mLdEPbmJalR3-3" value="운영자" style="shape=umlActor;verticalLabelPosition=bottom;verticalAlign=top;html=1;outlineConnect=0;labelBackgroundColor=none;fillColor=#A8DADC;strokeColor=#457B9D;fontColor=#1D3557;" vertex="1" parent="1">
          <mxGeometry x="30" y="910" width="30" height="60" as="geometry" />
        </mxCell>
        <mxCell id="dw1ToJf1mLdEPbmJalR3-32" style="edgeStyle=orthogonalEdgeStyle;rounded=0;orthogonalLoop=1;jettySize=auto;html=1;entryX=0;entryY=0.5;entryDx=0;entryDy=0;exitX=1;exitY=0.5;exitDx=0;exitDy=0;labelBackgroundColor=none;strokeColor=#457B9D;fontColor=default;" edge="1" parent="1" source="dw1ToJf1mLdEPbmJalR3-5" target="dw1ToJf1mLdEPbmJalR3-29">
          <mxGeometry relative="1" as="geometry">
            <mxPoint x="350" y="150" as="sourcePoint" />
          </mxGeometry>
        </mxCell>
        <mxCell id="dw1ToJf1mLdEPbmJalR3-36" style="edgeStyle=orthogonalEdgeStyle;rounded=0;orthogonalLoop=1;jettySize=auto;html=1;exitX=0.5;exitY=0;exitDx=0;exitDy=0;entryX=0;entryY=0.5;entryDx=0;entryDy=0;labelBackgroundColor=none;strokeColor=#457B9D;fontColor=default;" edge="1" parent="1" source="dw1ToJf1mLdEPbmJalR3-5" target="dw1ToJf1mLdEPbmJalR3-30">
          <mxGeometry relative="1" as="geometry" />
        </mxCell>
        <mxCell id="dw1ToJf1mLdEPbmJalR3-37" style="edgeStyle=orthogonalEdgeStyle;rounded=0;orthogonalLoop=1;jettySize=auto;html=1;exitX=0.5;exitY=1;exitDx=0;exitDy=0;entryX=0;entryY=0.5;entryDx=0;entryDy=0;labelBackgroundColor=none;strokeColor=#457B9D;fontColor=default;" edge="1" parent="1" source="dw1ToJf1mLdEPbmJalR3-5" target="dw1ToJf1mLdEPbmJalR3-31">
          <mxGeometry relative="1" as="geometry" />
        </mxCell>
        <mxCell id="dw1ToJf1mLdEPbmJalR3-5" value="게시판" style="rhombus;whiteSpace=wrap;html=1;labelBackgroundColor=none;fillColor=#A8DADC;strokeColor=#457B9D;fontColor=#1D3557;" vertex="1" parent="1">
          <mxGeometry x="220" y="70" width="80" height="80" as="geometry" />
        </mxCell>
        <mxCell id="dw1ToJf1mLdEPbmJalR3-44" style="edgeStyle=orthogonalEdgeStyle;rounded=0;orthogonalLoop=1;jettySize=auto;html=1;exitX=1;exitY=0.5;exitDx=0;exitDy=0;entryX=0;entryY=0.5;entryDx=0;entryDy=0;labelBackgroundColor=none;strokeColor=#457B9D;fontColor=default;" edge="1" parent="1" source="dw1ToJf1mLdEPbmJalR3-6" target="dw1ToJf1mLdEPbmJalR3-39">
          <mxGeometry relative="1" as="geometry" />
        </mxCell>
        <mxCell id="dw1ToJf1mLdEPbmJalR3-45" style="edgeStyle=orthogonalEdgeStyle;rounded=0;orthogonalLoop=1;jettySize=auto;html=1;exitX=1;exitY=0.5;exitDx=0;exitDy=0;entryX=0;entryY=0.5;entryDx=0;entryDy=0;labelBackgroundColor=none;strokeColor=#457B9D;fontColor=default;" edge="1" parent="1" source="dw1ToJf1mLdEPbmJalR3-6" target="dw1ToJf1mLdEPbmJalR3-40">
          <mxGeometry relative="1" as="geometry" />
        </mxCell>
        <mxCell id="dw1ToJf1mLdEPbmJalR3-46" style="edgeStyle=orthogonalEdgeStyle;rounded=0;orthogonalLoop=1;jettySize=auto;html=1;exitX=1;exitY=0.5;exitDx=0;exitDy=0;entryX=0;entryY=0.5;entryDx=0;entryDy=0;labelBackgroundColor=none;strokeColor=#457B9D;fontColor=default;" edge="1" parent="1" source="dw1ToJf1mLdEPbmJalR3-6" target="dw1ToJf1mLdEPbmJalR3-38">
          <mxGeometry relative="1" as="geometry" />
        </mxCell>
        <mxCell id="dw1ToJf1mLdEPbmJalR3-65" style="edgeStyle=orthogonalEdgeStyle;rounded=0;orthogonalLoop=1;jettySize=auto;html=1;exitX=0.5;exitY=1;exitDx=0;exitDy=0;entryX=0;entryY=0.5;entryDx=0;entryDy=0;labelBackgroundColor=none;strokeColor=#457B9D;fontColor=default;" edge="1" parent="1" source="dw1ToJf1mLdEPbmJalR3-6" target="dw1ToJf1mLdEPbmJalR3-42">
          <mxGeometry relative="1" as="geometry" />
        </mxCell>
        <mxCell id="dw1ToJf1mLdEPbmJalR3-6" value="회원관리" style="rhombus;whiteSpace=wrap;html=1;labelBackgroundColor=none;fillColor=#A8DADC;strokeColor=#457B9D;fontColor=#1D3557;" vertex="1" parent="1">
          <mxGeometry x="220" y="290" width="80" height="80" as="geometry" />
        </mxCell>
        <mxCell id="dw1ToJf1mLdEPbmJalR3-54" style="edgeStyle=orthogonalEdgeStyle;rounded=0;orthogonalLoop=1;jettySize=auto;html=1;exitX=1;exitY=0.5;exitDx=0;exitDy=0;entryX=0;entryY=0.5;entryDx=0;entryDy=0;labelBackgroundColor=none;strokeColor=#457B9D;fontColor=default;" edge="1" parent="1" source="dw1ToJf1mLdEPbmJalR3-7" target="dw1ToJf1mLdEPbmJalR3-49">
          <mxGeometry relative="1" as="geometry" />
        </mxCell>
        <mxCell id="dw1ToJf1mLdEPbmJalR3-55" style="edgeStyle=orthogonalEdgeStyle;rounded=0;orthogonalLoop=1;jettySize=auto;html=1;exitX=1;exitY=0.5;exitDx=0;exitDy=0;entryX=0;entryY=0.5;entryDx=0;entryDy=0;labelBackgroundColor=none;strokeColor=#457B9D;fontColor=default;" edge="1" parent="1" source="dw1ToJf1mLdEPbmJalR3-7" target="dw1ToJf1mLdEPbmJalR3-50">
          <mxGeometry relative="1" as="geometry" />
        </mxCell>
        <mxCell id="dw1ToJf1mLdEPbmJalR3-56" style="edgeStyle=orthogonalEdgeStyle;rounded=0;orthogonalLoop=1;jettySize=auto;html=1;exitX=1;exitY=0.5;exitDx=0;exitDy=0;entryX=0;entryY=0.5;entryDx=0;entryDy=0;labelBackgroundColor=none;strokeColor=#457B9D;fontColor=default;" edge="1" parent="1" source="dw1ToJf1mLdEPbmJalR3-7" target="dw1ToJf1mLdEPbmJalR3-51">
          <mxGeometry relative="1" as="geometry" />
        </mxCell>
        <mxCell id="dw1ToJf1mLdEPbmJalR3-57" style="edgeStyle=orthogonalEdgeStyle;rounded=0;orthogonalLoop=1;jettySize=auto;html=1;exitX=1;exitY=0.5;exitDx=0;exitDy=0;entryX=0;entryY=0.5;entryDx=0;entryDy=0;labelBackgroundColor=none;strokeColor=#457B9D;fontColor=default;" edge="1" parent="1" source="dw1ToJf1mLdEPbmJalR3-7" target="dw1ToJf1mLdEPbmJalR3-52">
          <mxGeometry relative="1" as="geometry" />
        </mxCell>
        <mxCell id="dw1ToJf1mLdEPbmJalR3-58" style="edgeStyle=orthogonalEdgeStyle;rounded=0;orthogonalLoop=1;jettySize=auto;html=1;exitX=1;exitY=0.5;exitDx=0;exitDy=0;entryX=0;entryY=0.5;entryDx=0;entryDy=0;labelBackgroundColor=none;strokeColor=#457B9D;fontColor=default;" edge="1" parent="1" source="dw1ToJf1mLdEPbmJalR3-7" target="dw1ToJf1mLdEPbmJalR3-53">
          <mxGeometry relative="1" as="geometry" />
        </mxCell>
        <mxCell id="dw1ToJf1mLdEPbmJalR3-7" value="상품페이지" style="rhombus;whiteSpace=wrap;html=1;labelBackgroundColor=none;fillColor=#A8DADC;strokeColor=#457B9D;fontColor=#1D3557;" vertex="1" parent="1">
          <mxGeometry x="220" y="530" width="80" height="80" as="geometry" />
        </mxCell>
        <mxCell id="dw1ToJf1mLdEPbmJalR3-69" style="edgeStyle=orthogonalEdgeStyle;rounded=0;orthogonalLoop=1;jettySize=auto;html=1;exitX=1;exitY=0.5;exitDx=0;exitDy=0;entryX=0;entryY=0.5;entryDx=0;entryDy=0;labelBackgroundColor=none;strokeColor=#457B9D;fontColor=default;" edge="1" parent="1" source="dw1ToJf1mLdEPbmJalR3-8" target="dw1ToJf1mLdEPbmJalR3-66">
          <mxGeometry relative="1" as="geometry" />
        </mxCell>
        <mxCell id="dw1ToJf1mLdEPbmJalR3-70" style="edgeStyle=orthogonalEdgeStyle;rounded=0;orthogonalLoop=1;jettySize=auto;html=1;exitX=1;exitY=0.5;exitDx=0;exitDy=0;entryX=0;entryY=0.5;entryDx=0;entryDy=0;labelBackgroundColor=none;strokeColor=#457B9D;fontColor=default;" edge="1" parent="1" source="dw1ToJf1mLdEPbmJalR3-8" target="dw1ToJf1mLdEPbmJalR3-67">
          <mxGeometry relative="1" as="geometry" />
        </mxCell>
        <mxCell id="dw1ToJf1mLdEPbmJalR3-71" style="edgeStyle=orthogonalEdgeStyle;rounded=0;orthogonalLoop=1;jettySize=auto;html=1;exitX=1;exitY=0.5;exitDx=0;exitDy=0;entryX=0;entryY=0.5;entryDx=0;entryDy=0;labelBackgroundColor=none;strokeColor=#457B9D;fontColor=default;" edge="1" parent="1" source="dw1ToJf1mLdEPbmJalR3-8" target="dw1ToJf1mLdEPbmJalR3-68">
          <mxGeometry relative="1" as="geometry" />
        </mxCell>
        <mxCell id="dw1ToJf1mLdEPbmJalR3-8" value="관리자페이지" style="rhombus;whiteSpace=wrap;html=1;labelBackgroundColor=none;fillColor=#A8DADC;strokeColor=#457B9D;fontColor=#1D3557;" vertex="1" parent="1">
          <mxGeometry x="220" y="900" width="80" height="80" as="geometry" />
        </mxCell>
        <mxCell id="dw1ToJf1mLdEPbmJalR3-29" value="댓글,대댓글" style="rounded=0;whiteSpace=wrap;html=1;labelBackgroundColor=none;fillColor=#A8DADC;strokeColor=#457B9D;fontColor=#1D3557;" vertex="1" parent="1">
          <mxGeometry x="414" y="90" width="170" height="40" as="geometry" />
        </mxCell>
        <mxCell id="dw1ToJf1mLdEPbmJalR3-30" value="목록보기" style="rounded=0;whiteSpace=wrap;html=1;labelBackgroundColor=none;fillColor=#A8DADC;strokeColor=#457B9D;fontColor=#1D3557;" vertex="1" parent="1">
          <mxGeometry x="414" y="30" width="170" height="40" as="geometry" />
        </mxCell>
        <mxCell id="dw1ToJf1mLdEPbmJalR3-31" value="글쓰기,수정,삭제,글꼴설정" style="rounded=0;whiteSpace=wrap;html=1;labelBackgroundColor=none;fillColor=#A8DADC;strokeColor=#457B9D;fontColor=#1D3557;" vertex="1" parent="1">
          <mxGeometry x="414" y="150" width="170" height="40" as="geometry" />
        </mxCell>
        <mxCell id="dw1ToJf1mLdEPbmJalR3-38" value="로그인/로그아웃" style="rounded=0;whiteSpace=wrap;html=1;labelBackgroundColor=none;fillColor=#A8DADC;strokeColor=#457B9D;fontColor=#1D3557;" vertex="1" parent="1">
          <mxGeometry x="414" y="250" width="170" height="40" as="geometry" />
        </mxCell>
        <mxCell id="dw1ToJf1mLdEPbmJalR3-39" value="아이디저장" style="rounded=0;whiteSpace=wrap;html=1;labelBackgroundColor=none;fillColor=#A8DADC;strokeColor=#457B9D;fontColor=#1D3557;" vertex="1" parent="1">
          <mxGeometry x="414" y="310" width="170" height="40" as="geometry" />
        </mxCell>
        <mxCell id="dw1ToJf1mLdEPbmJalR3-40" value="비밀번호찾기" style="rounded=0;whiteSpace=wrap;html=1;labelBackgroundColor=none;fillColor=#A8DADC;strokeColor=#457B9D;fontColor=#1D3557;" vertex="1" parent="1">
          <mxGeometry x="414" y="370" width="170" height="40" as="geometry" />
        </mxCell>
        <mxCell id="dw1ToJf1mLdEPbmJalR3-76" style="edgeStyle=orthogonalEdgeStyle;rounded=0;orthogonalLoop=1;jettySize=auto;html=1;exitX=1;exitY=0.5;exitDx=0;exitDy=0;entryX=0;entryY=0.5;entryDx=0;entryDy=0;labelBackgroundColor=none;strokeColor=#457B9D;fontColor=default;" edge="1" parent="1" source="dw1ToJf1mLdEPbmJalR3-42" target="dw1ToJf1mLdEPbmJalR3-72">
          <mxGeometry relative="1" as="geometry" />
        </mxCell>
        <mxCell id="dw1ToJf1mLdEPbmJalR3-77" style="edgeStyle=orthogonalEdgeStyle;rounded=0;orthogonalLoop=1;jettySize=auto;html=1;exitX=1;exitY=0.5;exitDx=0;exitDy=0;entryX=0;entryY=0.5;entryDx=0;entryDy=0;labelBackgroundColor=none;strokeColor=#457B9D;fontColor=default;" edge="1" parent="1" source="dw1ToJf1mLdEPbmJalR3-42" target="dw1ToJf1mLdEPbmJalR3-73">
          <mxGeometry relative="1" as="geometry">
            <Array as="points">
              <mxPoint x="610" y="490" />
              <mxPoint x="610" y="420" />
            </Array>
          </mxGeometry>
        </mxCell>
        <mxCell id="dw1ToJf1mLdEPbmJalR3-78" style="edgeStyle=orthogonalEdgeStyle;rounded=0;orthogonalLoop=1;jettySize=auto;html=1;exitX=1;exitY=0.5;exitDx=0;exitDy=0;entryX=0;entryY=0.5;entryDx=0;entryDy=0;labelBackgroundColor=none;strokeColor=#457B9D;fontColor=default;" edge="1" parent="1" source="dw1ToJf1mLdEPbmJalR3-42" target="dw1ToJf1mLdEPbmJalR3-74">
          <mxGeometry relative="1" as="geometry">
            <Array as="points">
              <mxPoint x="610" y="490" />
              <mxPoint x="610" y="550" />
            </Array>
          </mxGeometry>
        </mxCell>
        <mxCell id="dw1ToJf1mLdEPbmJalR3-79" style="edgeStyle=orthogonalEdgeStyle;rounded=0;orthogonalLoop=1;jettySize=auto;html=1;exitX=1;exitY=0.5;exitDx=0;exitDy=0;entryX=0;entryY=0.5;entryDx=0;entryDy=0;labelBackgroundColor=none;strokeColor=#457B9D;fontColor=default;" edge="1" parent="1" source="dw1ToJf1mLdEPbmJalR3-42" target="dw1ToJf1mLdEPbmJalR3-75">
          <mxGeometry relative="1" as="geometry">
            <Array as="points">
              <mxPoint x="610" y="490" />
              <mxPoint x="610" y="610" />
            </Array>
          </mxGeometry>
        </mxCell>
        <mxCell id="dw1ToJf1mLdEPbmJalR3-42" value="마이페이지" style="rhombus;whiteSpace=wrap;html=1;labelBackgroundColor=none;fillColor=#A8DADC;strokeColor=#457B9D;fontColor=#1D3557;" vertex="1" parent="1">
          <mxGeometry x="450" y="450" width="80" height="80" as="geometry" />
        </mxCell>
        <mxCell id="dw1ToJf1mLdEPbmJalR3-49" value="상품상세페이지" style="rounded=0;whiteSpace=wrap;html=1;labelBackgroundColor=none;fillColor=#A8DADC;strokeColor=#457B9D;fontColor=#1D3557;" vertex="1" parent="1">
          <mxGeometry x="414" y="550" width="170" height="40" as="geometry" />
        </mxCell>
        <mxCell id="dw1ToJf1mLdEPbmJalR3-50" value="한줄평" style="rounded=0;whiteSpace=wrap;html=1;labelBackgroundColor=none;fillColor=#A8DADC;strokeColor=#457B9D;fontColor=#1D3557;" vertex="1" parent="1">
          <mxGeometry x="414" y="610" width="170" height="40" as="geometry" />
        </mxCell>
        <mxCell id="dw1ToJf1mLdEPbmJalR3-51" value="옵션/수량선택" style="rounded=0;whiteSpace=wrap;html=1;labelBackgroundColor=none;fillColor=#A8DADC;strokeColor=#457B9D;fontColor=#1D3557;" vertex="1" parent="1">
          <mxGeometry x="414" y="670" width="170" height="40" as="geometry" />
        </mxCell>
        <mxCell id="dw1ToJf1mLdEPbmJalR3-52" value="장바구니/관심목록 추가" style="rounded=0;whiteSpace=wrap;html=1;labelBackgroundColor=none;fillColor=#A8DADC;strokeColor=#457B9D;fontColor=#1D3557;" vertex="1" parent="1">
          <mxGeometry x="414" y="730" width="170" height="40" as="geometry" />
        </mxCell>
        <mxCell id="dw1ToJf1mLdEPbmJalR3-53" value="매장위치/재고 검색" style="rounded=0;whiteSpace=wrap;html=1;labelBackgroundColor=none;fillColor=#A8DADC;strokeColor=#457B9D;fontColor=#1D3557;" vertex="1" parent="1">
          <mxGeometry x="414" y="790" width="170" height="40" as="geometry" />
        </mxCell>
        <mxCell id="dw1ToJf1mLdEPbmJalR3-60" value="회원가입" style="rhombus;whiteSpace=wrap;html=1;labelBackgroundColor=none;fillColor=#A8DADC;strokeColor=#457B9D;fontColor=#1D3557;" vertex="1" parent="1">
          <mxGeometry x="220" y="640" width="80" height="80" as="geometry" />
        </mxCell>
        <mxCell id="dw1ToJf1mLdEPbmJalR3-66" value="업로드 수정 삭제" style="rounded=0;whiteSpace=wrap;html=1;labelBackgroundColor=none;fillColor=#A8DADC;strokeColor=#457B9D;fontColor=#1D3557;" vertex="1" parent="1">
          <mxGeometry x="414" y="920" width="170" height="40" as="geometry" />
        </mxCell>
        <mxCell id="dw1ToJf1mLdEPbmJalR3-67" value="공지사항 작성/수정" style="rounded=0;whiteSpace=wrap;html=1;labelBackgroundColor=none;fillColor=#A8DADC;strokeColor=#457B9D;fontColor=#1D3557;" vertex="1" parent="1">
          <mxGeometry x="414" y="980" width="170" height="40" as="geometry" />
        </mxCell>
        <mxCell id="dw1ToJf1mLdEPbmJalR3-68" value="추천상품 편집" style="rounded=0;whiteSpace=wrap;html=1;labelBackgroundColor=none;fillColor=#A8DADC;strokeColor=#457B9D;fontColor=#1D3557;" vertex="1" parent="1">
          <mxGeometry x="414" y="1040" width="170" height="40" as="geometry" />
        </mxCell>
        <mxCell id="dw1ToJf1mLdEPbmJalR3-72" value="내가 쓴 글 보기" style="rounded=0;whiteSpace=wrap;html=1;labelBackgroundColor=none;fillColor=#A8DADC;strokeColor=#457B9D;fontColor=#1D3557;" vertex="1" parent="1">
          <mxGeometry x="640" y="470" width="170" height="40" as="geometry" />
        </mxCell>
        <mxCell id="dw1ToJf1mLdEPbmJalR3-73" value="회원정보변경" style="rounded=0;whiteSpace=wrap;html=1;labelBackgroundColor=none;fillColor=#A8DADC;strokeColor=#457B9D;fontColor=#1D3557;" vertex="1" parent="1">
          <mxGeometry x="640" y="400" width="170" height="40" as="geometry" />
        </mxCell>
        <mxCell id="dw1ToJf1mLdEPbmJalR3-74" value="구매목록 확인" style="rounded=0;whiteSpace=wrap;html=1;labelBackgroundColor=none;fillColor=#A8DADC;strokeColor=#457B9D;fontColor=#1D3557;" vertex="1" parent="1">
          <mxGeometry x="640" y="530" width="170" height="40" as="geometry" />
        </mxCell>
        <mxCell id="dw1ToJf1mLdEPbmJalR3-75" value="장바구니/관심목록" style="rounded=0;whiteSpace=wrap;html=1;labelBackgroundColor=none;fillColor=#A8DADC;strokeColor=#457B9D;fontColor=#1D3557;" vertex="1" parent="1">
          <mxGeometry x="640" y="590" width="170" height="40" as="geometry" />
        </mxCell>
        <mxCell id="dw1ToJf1mLdEPbmJalR3-84" value="" style="endArrow=classic;html=1;rounded=0;labelBackgroundColor=none;strokeColor=#457B9D;fontColor=default;" edge="1" parent="1">
          <mxGeometry width="50" height="50" relative="1" as="geometry">
            <mxPoint x="280" y="660" as="sourcePoint" />
            <mxPoint x="410" y="270" as="targetPoint" />
          </mxGeometry>
        </mxCell>
      </root>
    </mxGraphModel>
  </diagram>
</mxfile>
